<svg width="18" height="18" viewBox="0 0 18 18" fill="none" xmlns="http://www.w3.org/2000/svg">
<path d="M16 0C16.55 0 17.0208 0.195833 17.4125 0.5875C17.8042 0.979166 18 1.45 18 2V6H16V2H2V16H16V12H18V16C18 16.55 17.8042 17.0208 17.4125 17.4125C17.0208 17.8042 16.55 18 16 18H2C1.45 18 0.979166 17.8042 0.5875 17.4125C0.195833 17.0208 0 16.55 0 16V2C0 1.45 0.195833 0.979166 0.5875 0.5875C0.979166 0.195833 1.45 0 2 0H16ZM10.5 4L11.9 5.45L9.35 8H18V10H9.35L11.9 12.55L10.5 14L5.5 9L10.5 4Z" fill="white"/>
</svg>
